# xmcd CD database file
#
# Track frame offsets:
#	150
#	17755
#	33950
#	51624
#	70189
#	86334
#	100915
#	116384
#	131198
#	148291
#	163259
#	175563
#	189917
#	210959
#
# Disc length: 3051 seconds
#
# Revision: 0
# Processed by: cddbd v1.5.2PL0 Copyright (c) Steve Scherf et al.
# Submitted via: CDex 1.51
#
DISCID=bf0be90e
DTITLE=Chris Emerson - Shadow Of You
DYEAR=2006
DGENRE=Country
TTITLE0=Live It Up
TTITLE1=Feel Like Fallin'
TTITLE2=Walk Away
TTITLE3=Cover Band
TTITLE4=Awww Son
TTITLE5=I'd Die For You
TTITLE6=Shadow Of You
TTITLE7=All I Want To Do Is Run
TTITLE8=Only More
TTITLE9=Angel In The Sun
TTITLE10=Be Loved By You
TTITLE11=Another Williams Tune
TTITLE12=Wrong Side Of The Law
TTITLE13=Tip Jar
EXTD=YEAR: 2006
EXTT0=
EXTT1=
EXTT2=
EXTT3=
EXTT4=
EXTT5=
EXTT6=
EXTT7=
EXTT8=
EXTT9=
EXTT10=
EXTT11=
EXTT12=
EXTT13=
PLAYORDER=
